<?xml version="1.0" standalone="no"?>
<!DOCTYPE svg PUBLIC "-//W3C//DTD SVG 20010904//EN"
 "http://www.w3.org/TR/2001/REC-SVG-20010904/DTD/svg10.dtd">
<svg version="1.0" xmlns="http://www.w3.org/2000/svg"
 width="1220.000000pt" height="1220.000000pt" viewBox="0 0 1220.000000 1220.000000"
 preserveAspectRatio="xMidYMid meet">
<metadata>
Created by potrace 1.11, written by Peter Selinger 2001-2013
</metadata>
<g transform="translate(0.000000,1220.000000) scale(0.100000,-0.100000)"
fill="#000000" stroke="none">
<path d="M2964 11674 c-16 -8 -45 -31 -64 -50 -32 -30 -42 -34 -90 -34 -66 0
-63 -8 5 -12 41 -3 49 -7 47 -21 -3 -15 9 -17 100 -18 l103 -2 -90 -14 c-69
-12 -94 -12 -108 -3 -16 10 -18 9 -14 -7 3 -10 8 -34 11 -54 5 -27 13 -39 29
-43 20 -6 20 -8 6 -19 -15 -12 -15 -14 1 -35 10 -12 31 -27 46 -33 46 -19 770
-26 4029 -44 1661 -9 3228 -20 3482 -23 l462 -7 -79 -90 c-80 -90 -80 -90 -59
-107 21 -18 21 -18 -13 -18 -38 0 -60 -20 -192 -179 -59 -71 -59 -71 -110 -71
-28 0 -58 -5 -66 -10 -11 -7 -5 -10 25 -10 44 0 74 -13 56 -24 -6 -4 -31 -33
-55 -65 l-45 -58 264 -2 263 -2 93 110 c80 97 95 110 118 107 14 -3 55 -8 90
-11 59 -7 63 -6 49 8 -10 11 -38 17 -83 19 l-67 3 79 96 c216 266 237 288 266
289 29 0 36 14 12 24 -14 5 -12 12 10 43 14 21 25 48 25 60 0 21 -5 23 -50 23
-27 0 -50 5 -50 10 0 6 25 10 56 10 l56 0 -7 33 c-4 17 -14 44 -21 59 -8 15
-14 29 -14 32 0 3 39 3 86 -1 56 -4 85 -2 81 4 -4 6 -48 13 -98 16 -79 5 -95
9 -118 31 -14 13 -44 32 -66 41 -37 15 -373 18 -3945 41 -4579 28 -4407 28
-4446 8z"/>
<path d="M10419 10603 c-51 -4 -60 -8 -95 -46 -82 -88 -197 -239 -188 -245 20
-15 13 -32 -14 -32 -29 0 -50 -21 -147 -146 -22 -28 -68 -82 -102 -120 -35
-38 -106 -121 -160 -184 -53 -63 -104 -120 -112 -127 -14 -11 -14 -12 2 -13
28 0 14 -25 -16 -28 -16 -2 -35 -15 -48 -35 -12 -18 -36 -47 -53 -64 l-30 -33
61 0 c73 0 123 -9 123 -22 0 -7 -36 -8 -97 -5 l-97 6 -74 -72 c-41 -40 -87
-95 -104 -124 -16 -28 -36 -57 -43 -63 -8 -7 -15 -16 -15 -21 0 -5 119 -9 264
-9 l263 0 84 101 c46 55 113 136 149 179 119 144 321 384 371 442 28 32 47 62
44 68 -3 5 0 10 8 10 8 0 104 106 212 235 174 207 200 235 226 235 32 0 37 7
14 24 -13 9 -11 16 16 49 l30 37 -143 0 c-79 0 -172 2 -208 4 -36 2 -90 2
-121 -1z m-119 -116 c0 -2 -12 -14 -27 -28 l-28 -24 24 28 c23 25 31 32 31 24z
m-50 -60 c0 -2 -12 -14 -27 -28 l-28 -24 24 28 c23 25 31 32 31 24z m-50 -61
c0 -2 -8 -10 -17 -17 -16 -13 -17 -12 -4 4 13 16 21 21 21 13z m-150 -180 c0
-2 -8 -10 -17 -17 -16 -13 -17 -12 -4 4 13 16 21 21 21 13z"/>
<path d="M8690 10440 c-60 -7 -92 -19 -130 -50 -17 -14 -47 -22 -93 -27 -80
-7 -88 -21 -15 -25 l51 -3 -51 -56 -52 -57 31 -6 c17 -3 128 -6 247 -6 l215 0
-6 41 c-3 22 -18 59 -34 82 -15 23 -28 48 -28 55 0 8 -18 24 -40 36 -33 19
-49 21 -95 16z"/>
<path d="M8323 10143 c-44 -44 -46 -48 -25 -51 32 -5 27 -22 -7 -22 -21 0 -36
-9 -53 -31 -13 -17 -50 -60 -82 -95 -33 -35 -57 -66 -54 -69 2 -3 32 -9 66
-13 34 -5 65 -12 69 -15 16 -17 -13 -20 -85 -10 -55 8 -81 8 -90 1 -7 -6 -37
-48 -67 -92 -50 -76 -80 -113 -190 -241 -24 -28 -53 -63 -65 -78 -18 -22 -29
-27 -66 -27 -28 0 -43 -4 -39 -10 3 -5 18 -10 32 -10 25 0 26 0 8 -20 -10 -11
-16 -20 -14 -21 2 -1 40 -3 83 -5 65 -3 83 -8 99 -25 l20 -21 -29 6 c-16 3
-63 11 -104 16 l-75 10 -45 -51 c-25 -28 -104 -116 -177 -195 -72 -79 -155
-172 -183 -206 -28 -35 -56 -70 -63 -78 -6 -8 -27 -32 -44 -53 -18 -21 -33
-43 -33 -48 0 -15 32 -10 54 9 20 16 20 16 7 0 -7 -10 -10 -18 -5 -18 24 -1
-25 -20 -51 -20 -24 -1 -38 -11 -70 -52 -22 -28 -44 -57 -48 -65 -7 -11 40
-13 265 -13 l273 1 25 35 c14 20 42 55 62 79 37 41 40 42 115 48 127 11 157
28 40 23 l-98 -4 33 36 32 37 -49 5 c-27 3 -50 11 -53 18 -3 10 10 11 60 7
l63 -6 267 319 266 320 -45 7 c-58 8 -47 20 16 16 48 -2 49 -2 97 58 42 52 53
59 76 55 14 -3 29 0 33 5 3 6 33 11 66 11 37 0 59 4 59 11 0 8 -25 9 -87 4
l-87 -7 65 73 c35 41 73 86 84 101 11 14 71 86 134 160 l113 133 -43 6 c-24 4
-47 5 -51 2 -5 -2 -8 1 -8 8 0 8 17 10 60 6 59 -5 60 -5 80 28 41 67 48 65
-234 65 l-254 0 -49 -47z m-1193 -1497 c0 -2 -8 -10 -17 -17 -16 -13 -17 -12
-4 4 13 16 21 21 21 13z"/>
<path d="M9076 9083 c-59 -65 -173 -199 -256 -298 -136 -164 -147 -180 -124
-183 30 -4 31 -13 3 -30 -12 -8 -18 -9 -14 -3 3 7 -2 11 -13 11 -17 0 -64 -52
-107 -119 -24 -38 -117 -152 -176 -216 -35 -39 -78 -88 -94 -110 -16 -22 -52
-65 -80 -96 -27 -31 -68 -79 -90 -108 -22 -29 -58 -74 -80 -100 -22 -26 -48
-58 -57 -70 -13 -15 -30 -21 -60 -22 l-43 -2 39 -6 40 -6 -56 -60 c-68 -74
-198 -236 -198 -247 0 -4 3 -7 8 -7 4 1 35 1 70 0 95 -2 75 -21 -22 -21 l-84
0 -36 -42 c-34 -42 -35 -43 -13 -50 12 -3 128 -6 257 -6 l235 -1 88 106 c92
111 95 123 34 123 -16 0 -26 4 -22 10 3 6 28 10 55 10 54 0 40 -13 224 206 33
40 62 64 81 69 21 5 25 9 13 12 -15 4 -15 8 -5 26 7 11 20 28 29 37 9 8 69 78
133 155 64 77 121 141 128 141 7 1 23 3 37 4 l25 1 -23 11 c-31 15 -22 32 19
36 19 1 54 5 79 9 l45 7 -63 6 -64 5 213 255 c116 140 227 272 245 293 19 20
34 42 34 47 0 6 -22 10 -49 10 -28 0 -53 5 -57 11 -5 8 12 10 61 7 l67 -4 87
100 c47 56 108 127 134 158 l47 57 -269 0 -269 1 -106 -117z"/>
<path d="M6887 8416 c-48 -52 -87 -97 -87 -101 0 -4 -16 -26 -37 -48 -33 -37
-35 -41 -17 -48 19 -8 17 -9 -25 -13 -8 0 -30 -21 -49 -46 -42 -57 -140 -174
-212 -254 l-55 -61 63 -3 c36 -2 62 -7 62 -14 0 -7 -20 -9 -64 -5 -71 7 -71 6
-160 -105 l-37 -48 -70 0 c-53 0 -69 -3 -69 -14 0 -12 11 -13 56 -9 53 6 56 5
46 -13 -6 -11 -41 -56 -79 -99 -112 -131 -213 -253 -213 -259 0 -3 22 -6 49
-6 28 0 53 -5 57 -11 4 -7 -15 -10 -62 -7 -69 3 -69 3 -103 -34 -30 -35 -31
-38 -12 -38 11 0 21 -4 21 -10 0 -5 -13 -10 -29 -10 -24 0 -40 -15 -110 -102
l-81 -103 -77 -11 -78 -11 69 -2 68 -1 -63 -70 c-69 -76 -127 -150 -128 -163
-1 -4 119 -6 266 -5 l266 3 114 138 113 137 -51 0 c-31 0 -48 4 -44 10 3 6 32
10 63 11 l57 0 160 195 c88 108 170 200 183 205 13 5 35 9 50 9 21 0 24 2 12
10 -8 5 -23 7 -34 4 -20 -7 -18 -1 18 49 19 26 23 27 108 27 100 0 110 14 17
24 -44 5 -65 4 -77 -6 -16 -12 -16 -11 -2 7 8 11 67 81 130 156 237 281 232
274 207 277 -12 1 -33 5 -47 8 -22 5 -23 7 -7 16 10 5 35 7 56 3 38 -6 39 -6
112 79 57 68 78 86 99 86 35 0 45 11 21 24 -17 10 -9 22 91 141 60 72 123 146
139 166 l29 37 -268 1 -268 1 -87 -94z"/>
<path d="M7608 7271 c-26 -6 -74 -54 -188 -191 -125 -150 -174 -209 -280 -339
-115 -140 -115 -141 -157 -141 -50 0 -58 -17 -11 -22 l32 -3 -64 -74 c-36 -41
-93 -109 -127 -152 -35 -42 -78 -89 -95 -105 -18 -15 -32 -30 -30 -33 1 -3
-24 -37 -57 -76 -218 -255 -205 -237 -185 -249 17 -9 16 -11 -10 -16 -21 -3
-49 -27 -94 -80 -36 -41 -89 -102 -118 -136 -29 -33 -70 -84 -91 -113 l-38
-52 -62 6 c-42 5 -63 3 -63 -4 0 -6 15 -11 33 -11 62 0 66 -14 19 -69 -23 -27
-42 -52 -42 -55 0 -3 27 -6 61 -6 41 0 58 -4 53 -11 -4 -6 -31 -9 -69 -7 -61
3 -63 2 -91 -32 -16 -19 -58 -69 -93 -110 -36 -41 -71 -82 -78 -91 -12 -14 13
-16 250 -17 l262 -2 95 115 95 115 83 0 c53 0 81 4 77 10 -3 6 -35 10 -71 10
-38 0 -64 4 -64 11 0 5 22 34 48 62 27 29 71 79 97 112 107 133 126 153 158
160 22 5 27 9 15 12 -24 6 -15 22 82 134 44 52 80 100 80 107 0 6 6 12 13 13
6 0 29 21 50 46 l39 46 61 -2 c70 -3 70 10 0 19 l-45 5 123 149 c68 82 166
199 218 260 l93 110 82 -2 c58 -2 77 0 66 7 -8 6 -41 11 -73 11 l-58 0 28 37
c15 20 88 107 160 192 73 86 133 159 133 164 0 4 -15 7 -32 7 -18 0 -40 5 -48
10 -11 7 3 10 47 10 l62 0 59 73 c59 72 60 72 103 69 24 -2 62 1 84 6 38 9 36
10 -33 11 -54 1 -73 4 -70 14 3 6 20 15 39 18 26 4 30 7 17 13 -14 6 -15 12
-8 26 6 10 10 21 10 24 0 2 -96 5 -214 5 -118 1 -220 3 -227 5 -8 2 -26 1 -41
-3z m-408 -581 c0 -5 -18 -10 -40 -10 -22 0 -40 5 -40 10 0 6 18 10 40 10 22
0 40 -4 40 -10z"/>
<path d="M5450 6660 c0 -5 -9 -10 -19 -10 -11 0 -38 -23 -62 -52 -24 -29 -46
-55 -50 -58 -25 -21 -149 -165 -149 -173 0 -6 -26 -38 -57 -73 -85 -91 -152
-170 -191 -223 -19 -25 -49 -61 -65 -78 l-31 -33 27 0 c15 0 27 -4 27 -10 0
-5 -17 -10 -39 -10 -35 0 -44 -6 -102 -72 -35 -40 -63 -75 -62 -78 1 -4 -20
-29 -48 -56 -54 -53 -57 -60 -31 -67 11 -3 8 -5 -9 -6 -21 -1 -35 -14 -65 -61
-22 -33 -43 -60 -47 -60 -12 0 -87 -83 -87 -96 0 -7 -12 -20 -27 -29 -28 -19
-72 -65 -73 -77 0 -5 11 -8 25 -8 39 0 29 -16 -11 -18 -24 -2 -43 -11 -54 -25
-10 -12 -47 -58 -83 -102 l-66 -80 32 -3 c18 -1 48 -5 67 -9 35 -7 35 -7 -15
-13 -27 -3 -58 -2 -68 3 -21 10 -62 -29 -142 -136 -27 -37 -57 -67 -65 -68
-10 0 -11 -2 -3 -6 9 -3 1 -19 -23 -49 -27 -32 -32 -44 -20 -44 9 0 16 -4 16
-10 0 -5 -12 -10 -27 -10 -21 -1 -36 -11 -59 -43 -17 -23 -31 -46 -31 -51 -1
-4 -20 -28 -44 -52 l-43 -44 54 0 c366 -3 485 1 502 17 25 23 23 28 -19 40
l-38 10 50 2 50 2 75 91 c75 92 172 208 255 304 l44 52 -37 7 -37 8 30 9 c17
4 38 7 47 4 19 -4 263 278 253 294 -3 6 -24 10 -46 10 -24 0 -38 4 -34 10 4 6
28 8 58 4 l52 -6 65 81 c36 45 75 94 86 109 l22 27 101 -9 c101 -9 125 -6 103
16 -7 7 -44 12 -97 11 l-84 -1 79 97 79 96 -42 6 c-40 5 -41 5 -14 13 15 5 36
6 48 3 23 -6 32 3 181 184 98 119 197 239 253 304 186 218 225 265 225 271 0
4 8 13 18 20 14 11 -25 13 -245 14 -169 0 -263 -4 -263 -10z m-305 -520 c4 -6
-22 -10 -69 -10 -44 0 -76 4 -76 10 0 6 30 10 69 10 39 0 73 -4 76 -10z m-745
-754 c0 -2 -8 -10 -17 -17 -16 -13 -17 -12 -4 4 13 16 21 21 21 13z m-100
-120 c0 -2 -8 -10 -17 -17 -16 -13 -17 -12 -4 4 13 16 21 21 21 13z"/>
<path d="M4650 5779 c0 -5 5 -7 10 -4 6 3 10 8 10 11 0 2 -4 4 -10 4 -5 0 -10
-5 -10 -11z"/>
<path d="M5653 4973 c-38 -49 -89 -110 -113 -138 l-43 -50 64 -6 c77 -7 75
-11 -9 -14 -76 -3 -83 -9 -210 -169 -48 -60 -108 -132 -133 -160 -25 -28 -60
-70 -78 -93 -23 -31 -40 -43 -58 -43 -19 0 -23 -3 -15 -13 11 -13 -74 -125
-171 -224 -46 -48 -56 -53 -94 -53 -32 0 -43 -4 -43 -15 0 -11 7 -14 24 -9 59
14 28 -35 -136 -217 -73 -82 -76 -87 -55 -94 19 -7 17 -9 -16 -12 -27 -3 -42
-12 -55 -31 -9 -14 -37 -47 -62 -73 -25 -26 -64 -74 -85 -106 -39 -57 -183
-226 -213 -250 -14 -11 -13 -13 6 -13 12 0 22 -4 22 -10 0 -5 -10 -10 -23 -10
-13 0 -38 -15 -57 -35 l-34 -35 275 0 274 0 133 160 c111 133 138 160 160 160
15 0 34 5 42 10 11 7 7 10 -18 10 l-33 0 70 84 c39 46 71 86 71 90 0 3 -18 6
-40 6 -22 0 -40 5 -40 11 0 6 20 9 51 8 l51 -3 52 61 c45 54 90 109 164 203
l24 30 -29 1 c-15 0 -37 4 -48 9 -14 6 -3 9 39 9 65 1 65 1 196 163 30 37 100
120 156 185 55 65 111 134 124 153 14 19 50 62 80 95 30 33 91 104 135 159
122 151 175 206 199 206 12 0 28 5 36 10 13 8 13 10 -2 10 -31 0 -27 16 13 65
36 44 39 50 22 56 -10 4 -127 8 -260 8 l-241 2 -69 -88z m-1298 -1656 c62 -16
47 -28 -27 -20 -46 5 -54 8 -45 19 15 16 12 16 72 1z"/>
<path d="M3630 4521 c-19 -28 -19 -30 -3 -40 18 -10 16 -12 -19 -15 -15 -1
-248 -271 -248 -288 0 -4 21 -8 48 -9 l47 -1 -40 -9 c-22 -6 -48 -8 -57 -5
-12 3 -36 -21 -82 -78 -35 -44 -76 -92 -90 -105 -14 -14 -26 -33 -26 -43 0
-10 -6 -18 -14 -18 -8 0 -30 -17 -49 -37 -76 -81 -117 -131 -117 -142 0 -6
-18 -11 -44 -11 -54 0 -71 -17 -22 -22 l35 -3 -66 -80 c-35 -44 -92 -108 -125
-141 -55 -56 -59 -63 -42 -73 17 -9 16 -10 -7 -11 -20 0 -37 -13 -68 -55 -23
-31 -64 -80 -92 -109 -27 -29 -73 -82 -101 -117 -28 -35 -71 -87 -97 -114 -25
-28 -59 -70 -76 -94 -16 -24 -54 -72 -82 -107 -29 -35 -53 -66 -53 -69 0 -3
23 -5 52 -5 68 0 57 -10 -13 -11 -55 -2 -55 -2 -122 -74 -37 -41 -67 -77 -67
-81 0 -4 -9 -18 -21 -30 -18 -19 -28 -21 -80 -17 -39 4 -59 2 -59 -5 0 -6 24
-12 55 -14 l55 -3 -90 -97 c-49 -53 -90 -101 -90 -106 0 -6 -4 -12 -8 -14 -15
-6 -53 -68 -42 -68 6 0 9 -4 5 -10 -3 -5 -11 -7 -18 -5 -7 2 -34 -22 -61 -54
-84 -100 -103 -91 198 -91 l264 0 269 323 c148 177 280 336 293 353 14 17 53
63 88 103 34 39 62 76 62 81 0 5 -17 11 -37 13 -33 3 -31 4 12 5 l51 2 107
130 c98 118 120 152 100 149 -26 -4 -73 2 -73 10 0 5 23 7 53 4 l52 -5 73 88
c40 49 92 112 116 139 24 28 76 89 115 138 l72 87 -30 0 c-47 0 -37 18 11 22
42 3 43 4 273 279 216 260 232 277 270 284 23 4 33 10 25 13 -30 10 -28 27 9
67 21 23 47 55 56 71 10 16 43 54 72 85 l54 56 -47 7 c-26 3 -147 6 -270 6
l-223 0 -21 -29z m-1125 -1532 c6 -7 -15 -8 -60 -5 -38 3 -74 5 -78 6 -5 0 -6
3 -4 8 7 10 130 2 142 -9z"/>
<path d="M3988 3008 c-36 -40 -92 -107 -125 -148 -34 -41 -73 -86 -87 -99 -14
-14 -26 -29 -26 -35 -1 -16 -129 -161 -169 -190 -19 -14 -45 -44 -58 -66 l-24
-40 33 0 c28 -1 30 -2 15 -11 -10 -6 -25 -8 -34 -4 -12 4 -35 -14 -78 -59 -34
-36 -69 -76 -78 -89 -8 -13 -41 -53 -72 -88 -31 -35 -63 -79 -71 -96 -14 -31
-17 -33 -69 -33 -29 0 -56 -4 -59 -8 -3 -5 20 -7 50 -4 50 4 56 3 61 -17 5
-21 9 -21 250 -21 l245 0 39 44 38 43 88 2 c48 1 94 6 102 12 11 6 -16 8 -80
7 l-97 -3 32 38 c17 21 56 69 86 107 30 37 87 104 125 149 62 72 74 81 105 81
33 0 34 0 13 17 -20 17 -19 19 106 167 70 83 142 171 161 196 18 25 41 52 50
60 26 24 130 147 130 154 0 3 -121 6 -269 6 l-269 0 -64 -72z m-268 -382 c0
-2 -8 -10 -17 -17 -16 -13 -17 -12 -4 4 13 16 21 21 21 13z"/>
<path d="M1495 1965 c-25 -29 -45 -55 -45 -58 0 -3 29 -8 65 -12 36 -3 65 -10
65 -15 0 -5 -16 -7 -35 -4 -115 14 -98 21 -172 -68 -37 -45 -90 -109 -118
-143 -27 -33 -74 -89 -104 -123 l-54 -62 -73 0 c-41 0 -74 -4 -74 -9 0 -5 28
-13 62 -18 l62 -8 -42 -45 c-53 -55 -192 -225 -192 -233 0 -3 10 -8 23 -10 15
-3 10 -5 -13 -6 -31 -1 -43 -11 -102 -81 -38 -44 -68 -83 -68 -86 0 -3 -11
-19 -24 -35 -53 -62 -58 -240 -8 -247 12 -2 20 -8 16 -13 -3 -5 -10 -7 -15 -4
-15 10 -10 -5 12 -36 l20 -29 -73 0 c-57 -1 -69 -3 -54 -11 10 -6 37 -9 59 -6
40 6 105 -4 177 -25 39 -11 635 -16 5317 -44 3149 -19 3017 -20 3065 28 19 19
32 21 112 20 64 -2 87 0 76 8 -8 5 -43 10 -77 10 l-62 0 15 28 c28 54 21 62
-51 62 -37 0 -65 4 -65 10 0 6 30 10 71 10 79 0 79 0 38 82 -11 21 -19 40 -19
44 0 3 33 3 74 -1 46 -4 76 -3 80 4 10 15 -30 23 -107 20 -57 -2 -82 2 -119
19 l-47 22 -3942 25 c-2168 13 -3946 22 -3951 19 -4 -3 -8 1 -8 9 0 23 30 42
61 39 33 -4 40 15 9 20 -19 3 -17 8 20 53 22 28 46 57 54 65 7 8 47 56 88 105
42 50 130 155 197 235 l122 145 -31 6 c-50 11 -47 19 6 19 l49 1 95 115 95
115 43 -3 c23 -2 42 -1 42 2 0 3 10 5 23 6 61 3 97 9 97 17 0 4 -42 7 -94 5
l-93 -3 48 55 c26 30 46 56 44 59 -2 2 -121 5 -264 6 l-260 3 -46 -53z"/>
<path d="M3204 1958 c8 -13 15 -27 16 -33 1 -18 20 -80 27 -91 15 -21 71 -45
58 -25 -12 20 16 20 69 1 62 -24 79 -20 170 38 41 26 126 113 126 128 0 2
-108 4 -240 4 l-240 0 14 -22z"/>
</g>
</svg>
